HIERARCHY
ROOT Hips
{
	OFFSET 0.000000 83.214638 0.000000
	CHANNELS 6 Xposition Yposition Zposition Xrotation Yrotation Zrotation
	JOINT Pelvis
	{
		OFFSET 0.000000 0.000000 0.000000
		CHANNELS 3 Xrotation Yrotation Zrotation
		JOINT LeftUpLeg
		{
			OFFSET 8.479700 -4.795502 -0.379100
			CHANNELS 3 Xrotation Yrotation Zrotation
			JOINT LeftLeg
			{
				OFFSET 0.024144 -32.555107 0.112900
				CHANNELS 3 Xrotation Yrotation Zrotation
				JOINT LeftFoot
				{
					OFFSET -0.024144 -32.638630 -3.012600
					CHANNELS 3 Xrotation Yrotation Zrotation
					JOINT LeftToeBase
					{
						OFFSET 0.970200 -13.225400 11.864200
						CHANNELS 3 Xrotation Yrotation Zrotation
						End Site
						{
							OFFSET 0.000000 12.319262 0.000000
						}
					}
					JOINT LFootTongue
					{
						OFFSET 1.142400 -1.059800 6.665200
						CHANNELS 3 Xrotation Yrotation Zrotation
						End Site
						{
							OFFSET 0.000000 12.319262 0.000000
						}
					}
				}
				JOINT LeftPantLeg
				{
					OFFSET 0.918482 -16.533964 -2.284700
					CHANNELS 3 Xrotation Yrotation Zrotation
					End Site
					{
						OFFSET 0.350399 24.744368 0.000000
					}
				}
			}
		}
		JOINT RightUpLeg
		{
			OFFSET -8.479700 -4.795502 -0.379100
			CHANNELS 3 Xrotation Yrotation Zrotation
			JOINT RightLeg
			{
				OFFSET -0.023144 -32.555092 0.112900
				CHANNELS 3 Xrotation Yrotation Zrotation
				JOINT RightFoot
				{
					OFFSET 0.023144 -32.638641 -3.012700
					CHANNELS 3 Xrotation Yrotation Zrotation
					JOINT RightToeBase
					{
						OFFSET -0.970200 -13.225400 11.864200
						CHANNELS 3 Xrotation Yrotation Zrotation
						End Site
						{
							OFFSET 0.000000 12.319244 0.000000
						}
					}
					JOINT RFootTongue
					{
						OFFSET -1.142200 -1.059800 6.665200
						CHANNELS 3 Xrotation Yrotation Zrotation
						End Site
						{
							OFFSET 0.000000 12.319243 0.000000
						}
					}
				}
				JOINT RightPantLeg
				{
					OFFSET -0.919482 -16.533978 -2.284800
					CHANNELS 3 Xrotation Yrotation Zrotation
					End Site
					{
						OFFSET -0.350400 24.744419 0.000000
					}
				}
			}
		}
	}
	JOINT Spine
	{
		OFFSET 0.000000 7.722000 1.166200
		CHANNELS 3 Xrotation Yrotation Zrotation
		JOINT Spine1
		{
			OFFSET 0.000000 12.024101 0.248800
			CHANNELS 3 Xrotation Yrotation Zrotation
			JOINT Spine2
			{
				OFFSET 0.000000 11.502998 -0.491200
				CHANNELS 3 Xrotation Yrotation Zrotation
				JOINT Neck
				{
					OFFSET 0.000000 18.430702 -3.123100
					CHANNELS 3 Xrotation Yrotation Zrotation
					JOINT Head
					{
						OFFSET 0.000000 9.051102 1.034000
						CHANNELS 3 Xrotation Yrotation Zrotation
						JOINT HairB
						{
							OFFSET 0.208400 24.786102 24.822300
							CHANNELS 3 Xrotation Yrotation Zrotation
							End Site
							{
								OFFSET 0.000000 32.263779 0.000000
							}
						}
						JOINT HairA
						{
							OFFSET -7.081100 24.428299 23.196600
							CHANNELS 3 Xrotation Yrotation Zrotation
							End Site
							{
								OFFSET 0.000000 32.263779 0.000000
							}
						}
						JOINT Hat
						{
							OFFSET 16.728800 15.048294 -15.439601
							CHANNELS 3 Xrotation Yrotation Zrotation
							End Site
							{
								OFFSET 0.000000 32.263779 0.000000
							}
						}
					}
				}
				JOINT LeftShoulder
				{
					OFFSET 6.197800 13.665199 -4.064700
					CHANNELS 3 Xrotation Yrotation Zrotation
					JOINT LeftArm
					{
						OFFSET 7.778100 -0.187103 -1.709300
						CHANNELS 3 Xrotation Yrotation Zrotation
						JOINT LeftForeArm
						{
							OFFSET 22.049376 0.000000 0.000000
							CHANNELS 3 Xrotation Yrotation Zrotation
							JOINT LeftHand
							{
								OFFSET 23.009392 0.000000 0.000000
								CHANNELS 3 Xrotation Yrotation Zrotation
								JOINT LeftHandThumb1
								{
									OFFSET 3.507191 -2.063065 3.133727
									CHANNELS 3 Xrotation Yrotation Zrotation
									JOINT LeftHandThumb2
									{
										OFFSET 3.101337 -1.790558 1.790558
										CHANNELS 3 Xrotation Yrotation Zrotation
										JOINT LeftHandThumb3
										{
											OFFSET 3.058640 -1.765907 1.765906
											CHANNELS 3 Xrotation Yrotation Zrotation
											End Site
											{
												OFFSET -0.415260 3.926476 -0.049563
											}
										}
									}
								}
								JOINT LeftHandIndex1
								{
									OFFSET 11.334419 -0.901459 3.706815
									CHANNELS 3 Xrotation Yrotation Zrotation
									JOINT LeftHandIndex2
									{
										OFFSET 3.283112 0.000000 0.000000
										CHANNELS 3 Xrotation Yrotation Zrotation
										JOINT LeftHandIndex3
										{
											OFFSET 3.323853 0.000000 0.000000
											CHANNELS 3 Xrotation Yrotation Zrotation
											End Site
											{
												OFFSET -1.135597 3.097809 0.402452
											}
										}
									}
								}
								JOINT LeftHandMiddle1
								{
									OFFSET 11.335861 0.000000 0.000000
									CHANNELS 3 Xrotation Yrotation Zrotation
									JOINT LeftHandMiddle2
									{
										OFFSET 3.410492 0.000000 0.000000
										CHANNELS 3 Xrotation Yrotation Zrotation
										JOINT LeftHandMiddle3
										{
											OFFSET 3.312172 0.000000 0.000000
											CHANNELS 3 Xrotation Yrotation Zrotation
											End Site
											{
												OFFSET -1.150200 3.080154 0.400270
											}
										}
									}
								}
								JOINT LeftHandRing1
								{
									OFFSET 11.514786 -0.013176 -3.003090
									CHANNELS 3 Xrotation Yrotation Zrotation
									JOINT LeftHandRing2
									{
										OFFSET 3.053307 0.000000 0.000000
										CHANNELS 3 Xrotation Yrotation Zrotation
										JOINT LeftHandRing3
										{
											OFFSET 3.295807 0.000000 0.000000
											CHANNELS 3 Xrotation Yrotation Zrotation
											End Site
											{
												OFFSET -1.281006 3.013344 0.375733
											}
										}
									}
								}
								JOINT LeftHandPinky1
								{
									OFFSET 10.518692 -0.960396 -5.730441
									CHANNELS 3 Xrotation Yrotation Zrotation
									JOINT LeftHandPinky2
									{
										OFFSET 2.861649 0.000000 0.000000
										CHANNELS 3 Xrotation Yrotation Zrotation
										JOINT LeftHandPinky3
										{
											OFFSET 2.863380 0.000000 0.000000
											CHANNELS 3 Xrotation Yrotation Zrotation
											End Site
											{
												OFFSET -0.843597 2.711159 0.369971
											}
										}
									}
								}
							}
							JOINT LSleeve
							{
								OFFSET 6.676277 -0.344902 -1.011730
								CHANNELS 3 Xrotation Yrotation Zrotation
								End Site
								{
									OFFSET 0.000000 14.885353 0.000000
								}
							}
						}
					}
				}
				JOINT RightShoulder
				{
					OFFSET -6.197800 13.665199 -4.064700
					CHANNELS 3 Xrotation Yrotation Zrotation
					JOINT RightArm
					{
						OFFSET -7.778100 -0.187103 -1.709300
						CHANNELS 3 Xrotation Yrotation Zrotation
						JOINT RightForeArm
						{
							OFFSET -22.049376 0.000000 0.000000
							CHANNELS 3 Xrotation Yrotation Zrotation
							JOINT RightHand
							{
								OFFSET -23.009392 0.000000 0.000000
								CHANNELS 3 Xrotation Yrotation Zrotation
								JOINT RightHandThumb1
								{
									OFFSET -3.507191 -2.063065 3.133727
									CHANNELS 3 Xrotation Yrotation Zrotation
									JOINT RightHandThumb2
									{
										OFFSET -3.101337 -1.790558 1.790558
										CHANNELS 3 Xrotation Yrotation Zrotation
										JOINT RightHandThumb3
										{
											OFFSET -3.058640 -1.765907 1.765906
											CHANNELS 3 Xrotation Yrotation Zrotation
											End Site
											{
												OFFSET 0.415260 3.926476 -0.049563
											}
										}
									}
								}
								JOINT RightHandIndex1
								{
									OFFSET -11.334419 -0.901459 3.706815
									CHANNELS 3 Xrotation Yrotation Zrotation
									JOINT RightHandIndex2
									{
										OFFSET -3.283112 0.000000 0.000000
										CHANNELS 3 Xrotation Yrotation Zrotation
										JOINT RightHandIndex3
										{
											OFFSET -3.323853 0.000000 0.000000
											CHANNELS 3 Xrotation Yrotation Zrotation
											End Site
											{
												OFFSET 1.135597 3.097809 0.402452
											}
										}
									}
								}
								JOINT RightHandMiddle1
								{
									OFFSET -11.335861 0.000000 0.000000
									CHANNELS 3 Xrotation Yrotation Zrotation
									JOINT RightHandMiddle2
									{
										OFFSET -3.410492 0.000000 0.000000
										CHANNELS 3 Xrotation Yrotation Zrotation
										JOINT RightHandMiddle3
										{
											OFFSET -3.312172 0.000000 0.000000
											CHANNELS 3 Xrotation Yrotation Zrotation
											End Site
											{
												OFFSET 1.150200 3.080154 0.400270
											}
										}
									}
								}
								JOINT RightHandRing1
								{
									OFFSET -11.514786 -0.013176 -3.003090
									CHANNELS 3 Xrotation Yrotation Zrotation
									JOINT RightHandRing2
									{
										OFFSET -3.053307 0.000000 0.000000
										CHANNELS 3 Xrotation Yrotation Zrotation
										JOINT RightHandRing3
										{
											OFFSET -3.295807 0.000000 0.000000
											CHANNELS 3 Xrotation Yrotation Zrotation
											End Site
											{
												OFFSET 1.281006 3.013344 0.375733
											}
										}
									}
								}
								JOINT RightHandPinky1
								{
									OFFSET -10.518692 -0.960396 -5.730441
									CHANNELS 3 Xrotation Yrotation Zrotation
									JOINT RightHandPinky2
									{
										OFFSET -2.861649 0.000000 0.000000
										CHANNELS 3 Xrotation Yrotation Zrotation
										JOINT RightHandPinky3
										{
											OFFSET -2.863380 0.000000 0.000000
											CHANNELS 3 Xrotation Yrotation Zrotation
											End Site
											{
												OFFSET 0.843597 2.711159 0.369971
											}
										}
									}
								}
							}
							JOINT RSleeve
							{
								OFFSET -6.676277 -0.344902 -1.011730
								CHANNELS 3 Xrotation Yrotation Zrotation
								End Site
								{
									OFFSET 0.000000 14.885353 0.000000
								}
							}
						}
					}
				}
				JOINT Backpack
				{
					OFFSET 0.000000 -2.471497 36.677502
					CHANNELS 3 Xrotation Yrotation Zrotation
					End Site
					{
						OFFSET 0.000000 20.427315 0.000000
					}
				}
				JOINT Hood
				{
					OFFSET 0.000000 18.754097 -10.431000
					CHANNELS 3 Xrotation Yrotation Zrotation
					JOINT Hood1
					{
						OFFSET 0.000000 -5.011002 -7.685901
						CHANNELS 3 Xrotation Yrotation Zrotation
						End Site
						{
							OFFSET 0.000000 9.175140 0.000000
						}
					}
				}
				JOINT LHoodieString
				{
					OFFSET 5.250500 16.397697 3.089900
					CHANNELS 3 Xrotation Yrotation Zrotation
					JOINT LHoodieString1
					{
						OFFSET 0.257700 -6.364304 3.694600
						CHANNELS 3 Xrotation Yrotation Zrotation
						JOINT LHoodieString2
						{
							OFFSET 0.000000 -9.643799 2.679100
							CHANNELS 3 Xrotation Yrotation Zrotation
							End Site
							{
								OFFSET 0.000000 10.009018 0.000000
							}
						}
					}
				}
				JOINT RHoodieString
				{
					OFFSET -5.250500 16.397697 3.089900
					CHANNELS 3 Xrotation Yrotation Zrotation
					JOINT RHoodieString1
					{
						OFFSET -0.257700 -6.364304 3.694600
						CHANNELS 3 Xrotation Yrotation Zrotation
						JOINT RHoodieString2
						{
							OFFSET 0.000000 -9.643799 2.679100
							CHANNELS 3 Xrotation Yrotation Zrotation
							End Site
							{
								OFFSET 0.000000 10.009018 0.000000
							}
						}
					}
				}
			}
			JOINT LBackpack_Strap
			{
				OFFSET 15.223200 -7.719803 -6.610900
				CHANNELS 3 Xrotation Yrotation Zrotation
				End Site
				{
					OFFSET 0.000000 16.040596 0.000000
				}
			}
			JOINT RBackpack_Strap
			{
				OFFSET -15.223000 -7.719803 -6.610900
				CHANNELS 3 Xrotation Yrotation Zrotation
				End Site
				{
					OFFSET 0.000000 16.040596 0.000000
				}
			}
		}
	}
	JOINT BoyFacialAnim_Joint
	{
		OFFSET 1.000000 -82.208099 -1.550900
		CHANNELS 3 Xrotation Yrotation Zrotation
		End Site
		{
			OFFSET 0.000000 30.012791 0.000000
		}
	}
}
MOTION
Frames: 5
Frame Time: 0.016667
-0.115458 81.401848 0.083576 -9.647605 5.179473 4.176352 0.000001 0.000000 0.000000 -18.555788 6.023720 -0.232578 51.101034 -5.537646 -0.817579 3.391108 0.061860 -1.790109 0.000001 0.000000 -0.000000 0.000001 0.000000 0.000000 0.000002 0.000000 -0.000000 -3.732218 -6.395601 -3.465584 24.506247 6.165087 3.572779 -11.381891 0.859449 -6.063018 0.000000 -0.000000 -0.000000 0.000000 -0.000000 -0.000000 0.000000 -0.000000 0.000001 15.816529 -5.128256 -1.978701 2.828928 -1.297233 -0.520220 2.839535 -1.291910 -0.480964 -10.214223 -0.289804 1.928839 0.642530 3.946485 -0.951178 -0.000000 0.000000 0.000000 -0.000000 0.000000 0.000000 -0.000000 0.000000 0.000000 1.783134 -2.817866 -5.367187 8.347190 -11.449700 -68.845978 0.000003 -33.539029 0.000026 -23.608532 5.693673 2.838375 -3.469770 3.607318 7.883177 9.703642 22.223513 2.891203 0.000000 0.000000 0.000002 0.162357 3.429614 -10.498170 0.209651 1.554737 -15.358572 -0.000000 -0.000000 -0.000000 0.362540 4.206375 -18.344215 0.474611 2.311794 -23.200254 -0.000001 -0.000000 -0.000005 0.689034 4.991707 -26.673256 0.865729 3.066787 -31.521456 -0.000001 0.000000 0.000001 0.902512 5.377879 -30.995357 1.110593 3.433634 -35.838163 0.000001 0.000000 -0.000002 -0.000001 -0.000000 0.000000 0.815659 9.465461 15.261691 -2.962834 1.768753 67.176693 0.000003 20.011863 -0.000009 1.317998 -7.062435 -8.055845 -1.986175 -5.435664 -3.761601 8.766485 -20.697683 -3.062078 -0.000001 -0.000003 -0.000001 2.057128 -6.108278 55.293557 5.419362 -4.594528 99.429407 -0.000000 0.000001 -0.000002 2.592851 -6.426559 62.973415 4.946635 -4.648186 93.567308 -0.000000 0.000002 -0.000007 2.854990 -6.549357 66.538569 4.919140 -4.649818 93.228203 0.000001 0.000000 -0.000001 1.542111 -5.696817 47.168200 2.898971 -4.313229 67.797346 0.000001 -0.000004 -0.000000 0.000001 0.000001 -0.000000 -0.000001 0.000000 -0.000000 -0.000001 0.000000 -0.000000 -0.000001 0.000000 -0.000000 -0.000001 0.000000 -0.000000 -0.000001 0.000000 -0.000000 0.000000 0.000000 -0.000000 -0.000001 0.000000 -0.000000 -0.000001 0.000000 -0.000000 0.000000 0.000000 -0.000000 0.000001 -0.000000 -0.000000 0.000001 -0.000000 -0.000000 0.000001 0.000000 0.000000 
-0.013342 81.476799 1.246393 -9.490200 4.506203 4.272933 0.000000 -0.000000 -0.000000 -19.226728 6.439058 -1.801288 46.914100 -5.965934 -0.821185 3.993244 -0.063589 -0.676741 0.000001 0.000000 -0.000000 0.000001 0.000000 0.000000 -0.000000 -0.000000 0.000001 -2.634504 -6.540085 -3.741238 23.939132 6.158712 3.588889 -12.014814 1.730282 -5.973273 -0.000000 0.000000 0.000000 -0.000000 0.000000 0.000000 0.000001 -0.000000 -0.000000 15.717805 -4.951799 -2.270583 2.864633 -1.219264 -0.580728 2.874599 -1.216439 -0.545703 -10.293796 -0.276140 1.920122 0.424422 4.055672 -0.967052 0.000000 -0.000000 -0.000000 0.000000 -0.000000 -0.000000 0.000000 -0.000000 -0.000000 1.743981 -3.170768 -5.307285 8.560803 -9.744662 -69.768627 -0.000006 -31.640749 0.000001 -20.354022 6.201447 1.849379 -3.469772 3.607318 7.883175 9.703640 22.223513 2.891202 -0.000000 0.000001 0.000002 0.162355 3.429614 -10.498168 0.209653 1.554737 -15.358572 -0.000001 -0.000000 -0.000000 0.362539 4.206377 -18.344213 0.474611 2.311795 -23.200249 -0.000000 -0.000000 -0.000002 0.689033 4.991707 -26.673256 0.865731 3.066787 -31.521463 -0.000000 0.000001 0.000001 0.902510 5.377879 -30.995357 1.110593 3.433635 -35.838160 0.000000 0.000000 -0.000000 0.000001 0.000001 -0.000000 0.830229 9.367763 15.335605 -2.994204 1.838905 66.790460 -0.000000 20.328292 0.000026 1.692686 -7.849709 -8.272429 -1.986177 -5.435664 -3.761599 8.766487 -20.697681 -3.062075 -0.000002 0.000000 0.000001 2.057130 -6.108277 55.293561 5.419361 -4.594527 99.429407 -0.000001 -0.000001 0.000002 2.592851 -6.426559 62.973408 4.946639 -4.648186 93.567315 -0.000003 -0.000002 0.000001 2.854989 -6.549357 66.538576 4.919139 -4.649816 93.228209 -0.000001 -0.000000 -0.000001 1.542108 -5.696818 47.168200 2.898964 -4.313227 67.797346 -0.000001 -0.000002 0.000002 0.000000 0.000000 0.000000 -0.000000 0.000000 -0.000000 -0.000000 0.000000 -0.000000 -0.000000 0.000000 -0.000000 -0.000000 0.000000 -0.000000 -0.000000 0.000000 0.000000 0.000001 0.000000 -0.000000 -0.000000 0.000000 -0.000000 -0.000000 0.000000 0.000000 0.000001 0.000000 -0.000000 -0.000000 0.000000 -0.000000 -0.000000 0.000000 -0.000000 0.000000 -0.000000 -0.000000 
0.105984 81.520195 2.511180 -9.309104 3.902863 4.286997 -0.000001 0.000000 -0.000000 -20.214804 6.430148 -2.896361 43.242939 -5.823915 -0.789492 3.816512 0.431125 -1.050554 -0.000000 -0.000000 0.000000 -0.000000 -0.000000 0.000000 0.000001 0.000000 -0.000000 -1.441391 -6.603644 -3.916958 23.320527 6.136119 3.606289 -12.721039 2.451349 -5.852794 -0.000000 -0.000000 -0.000000 -0.000000 -0.000000 -0.000000 -0.000001 0.000000 -0.000001 15.548427 -4.772943 -2.450422 2.925965 -1.153219 -0.636157 2.934973 -1.152664 -0.605375 -10.373087 -0.263190 1.911384 0.194516 4.155700 -0.959679 0.000000 -0.000000 -0.000000 0.000000 -0.000000 -0.000000 0.000000 -0.000000 -0.000000 1.706083 -3.362187 -5.359653 8.566206 -8.219117 -70.564815 -0.000004 -29.568951 -0.000003 -16.683217 6.782376 0.412771 -3.469770 3.607319 7.883176 9.703640 22.223513 2.891205 -0.000002 0.000002 0.000001 0.162356 3.429614 -10.498170 0.209652 1.554735 -15.358568 -0.000000 -0.000000 -0.000004 0.362541 4.206377 -18.344215 0.474611 2.311794 -23.200250 0.000000 -0.000000 -0.000002 0.689033 4.991707 -26.673256 0.865730 3.066786 -31.521460 -0.000002 0.000001 0.000001 0.902511 5.377879 -30.995357 1.110593 3.433635 -35.838160 -0.000001 0.000001 -0.000004 0.000002 0.000000 -0.000000 0.840505 9.299988 15.386813 -3.179690 1.962939 66.379234 -0.000003 20.310426 -0.000004 1.979820 -8.025351 -8.406094 -1.986174 -5.435664 -3.761599 8.766484 -20.697681 -3.062073 -0.000000 -0.000004 -0.000000 2.057130 -6.108277 55.293564 5.419365 -4.594527 99.429407 -0.000001 -0.000000 0.000004 2.592852 -6.426560 62.973415 4.946640 -4.648183 93.567315 -0.000001 -0.000001 -0.000004 2.854993 -6.549357 66.538576 4.919140 -4.649819 93.228216 0.000001 -0.000001 0.000002 1.542112 -5.696817 47.168200 2.898969 -4.313227 67.797346 -0.000000 -0.000000 0.000000 0.000000 0.000000 -0.000000 -0.000000 0.000000 -0.000000 -0.000000 0.000000 -0.000000 -0.000000 0.000000 -0.000000 -0.000000 0.000000 -0.000000 -0.000000 0.000000 -0.000000 -0.000000 0.000000 0.000000 -0.000000 0.000000 -0.000000 -0.000000 0.000000 -0.000000 -0.000000 0.000000 0.000000 0.000001 -0.000000 0.000000 0.000001 -0.000000 0.000000 -0.000001 0.000000 -0.000000 
0.239602 81.616547 3.916879 -9.113559 3.231573 4.326206 -0.000001 0.000000 -0.000000 -20.525781 6.343036 -4.103680 37.790224 -5.652839 -0.787176 4.115328 1.024970 -1.111645 0.000001 0.000000 -0.000001 0.000001 0.000000 -0.000000 0.000002 0.000000 -0.000000 0.127597 -6.636871 -4.115811 22.123299 6.089214 3.616145 -13.246234 3.192010 -5.655054 0.000000 0.000000 0.000000 0.000000 0.000000 0.000000 -0.000000 0.000000 -0.000000 15.368296 -4.581894 -2.676327 2.992099 -1.077589 -0.696962 3.000080 -1.079577 -0.670915 -10.460873 -0.248840 1.903442 -0.064419 4.273280 -0.953785 0.000000 0.000000 0.000000 0.000000 0.000000 0.000000 0.000000 0.000000 0.000000 1.662387 -3.586408 -5.415227 8.625610 -6.507517 -71.432372 -0.000002 -27.273637 0.000011 -12.557442 7.323396 -1.225768 -3.469770 3.607318 7.883176 9.703641 22.223516 2.891202 0.000000 -0.000000 -0.000000 0.162353 3.429614 -10.498172 0.209652 1.554736 -15.358567 -0.000001 0.000000 -0.000002 0.362539 4.206376 -18.344215 0.474610 2.311793 -23.200247 -0.000001 -0.000000 -0.000003 0.689032 4.991707 -26.673256 0.865730 3.066785 -31.521456 -0.000001 0.000001 0.000001 0.902509 5.377880 -30.995357 1.110593 3.433634 -35.838156 -0.000000 0.000001 0.000002 0.000003 0.000000 0.000000 0.852753 9.220244 15.447173 -3.645491 2.192712 65.984217 0.000001 19.518039 0.000017 2.258819 -7.623026 -8.499314 -1.986176 -5.435664 -3.761601 8.766485 -20.697683 -3.062076 -0.000001 -0.000001 0.000003 2.057131 -6.108277 55.293564 5.419364 -4.594526 99.429407 -0.000002 -0.000001 0.000007 2.592849 -6.426561 62.973408 4.946639 -4.648185 93.567315 -0.000000 0.000001 -0.000004 2.854993 -6.549356 66.538576 4.919140 -4.649817 93.228209 -0.000002 -0.000000 0.000002 1.542113 -5.696815 47.168200 2.898970 -4.313228 67.797346 0.000000 0.000000 0.000000 0.000000 -0.000001 -0.000000 0.000001 0.000000 -0.000000 0.000001 0.000000 -0.000000 0.000001 0.000000 -0.000000 0.000001 0.000000 -0.000000 0.000001 0.000000 -0.000000 0.000001 0.000000 -0.000000 0.000001 0.000000 -0.000000 0.000001 0.000000 -0.000000 0.000001 0.000000 -0.000000 0.000001 0.000000 -0.000000 0.000001 0.000000 -0.000000 -0.000001 0.000000 -0.000000 
0.382701 81.690895 5.394695 -8.910641 2.624189 4.312245 0.000000 -0.000000 -0.000000 -20.743636 5.942566 -4.997953 32.300668 -4.768797 -0.718766 3.895333 2.145046 -1.646827 -0.000000 -0.000000 -0.000000 -0.000000 -0.000000 0.000000 -0.000000 0.000000 -0.000000 1.853469 -6.602728 -4.237599 20.719669 6.027390 3.622591 -13.737915 3.791730 -5.425196 0.000000 0.000000 0.000000 0.000000 0.000000 0.000000 -0.000000 -0.000000 0.000000 15.145596 -4.394021 -2.831009 3.073984 -1.009370 -0.750864 3.080799 -1.013662 -0.729507 -10.546601 -0.234952 1.897866 -0.333738 4.393884 -0.932577 -0.000000 0.000000 0.000000 -0.000000 0.000000 0.000000 -0.000000 0.000000 0.000000 1.618157 -3.693429 -5.554583 8.558471 -4.941703 -72.162315 0.000000 -24.893056 0.000005 -8.130225 7.819586 -3.201289 -3.469769 3.607318 7.883175 9.703640 22.223509 2.891201 0.000001 0.000001 -0.000001 0.162358 3.429614 -10.498171 0.209654 1.554735 -15.358568 -0.000000 -0.000001 -0.000002 0.362542 4.206376 -18.344215 0.474611 2.311793 -23.200249 -0.000001 -0.000001 -0.000000 0.689033 4.991707 -26.673256 0.865729 3.066784 -31.521456 -0.000001 0.000001 -0.000000 0.902513 5.377879 -30.995357 1.110592 3.433634 -35.838160 0.000000 0.000000 -0.000000 0.000000 0.000000 -0.000000 0.862262 9.159149 15.493396 -3.659157 2.308761 65.526000 -0.000004 19.688140 -0.000007 2.509782 -7.958364 -8.625261 -1.986174 -5.435664 -3.761599 8.766489 -20.697679 -3.062077 -0.000001 -0.000000 0.000002 2.057133 -6.108277 55.293564 5.419365 -4.594526 99.429413 -0.000000 -0.000000 0.000002 2.592857 -6.426560 62.973415 4.946638 -4.648183 93.567322 -0.000002 0.000002 0.000000 2.854993 -6.549357 66.538576 4.919139 -4.649818 93.228216 -0.000002 -0.000000 0.000000 1.542115 -5.696816 47.168204 2.898969 -4.313228 67.797346 0.000000 0.000000 -0.000003 -0.000000 -0.000001 -0.000000 0.000001 0.000000 -0.000000 0.000001 0.000000 -0.000000 0.000001 0.000000 -0.000000 0.000001 0.000000 -0.000000 0.000001 0.000000 -0.000000 0.000001 0.000000 -0.000000 0.000001 0.000000 -0.000000 0.000001 0.000000 -0.000000 0.000001 0.000000 -0.000000 0.000000 0.000000 0.000000 0.000000 0.000000 0.000000 0.000000 -0.000000 -0.000000 
